#!OML:ASF E:\Mandelcareful walks\Project 1\Capture day 1\Session 1\Subject1.ASF
:FULLY-SPECIFIED
:DEGREES
525
root 4.91315 15.009 -0.904076 -162.02 -27.88 179.23
lowerback 27.906 -6.4597 -2.63913
upperback 4.02934 -9.55082 3.86855
thorax -9.62405 -4.67007 9.25424
lowerneck -13.1583 -19.7752 -20.8305
upperneck 13.3963 -30.177 25.8013
head 14.3781 -13.107 6.39959
rclavicle 8.11041e-014 1.82882e-014
rhumerus -3.51308 32.062 -83.9147
rradius 52.0242
rwrist -12.1043
rhand -9.96569 -30.037
rfingers 7.12502
rthumb 16.0167 -59.3949
lclavicle 8.11041e-014 1.82882e-014
lhumerus -37.1485 -43.368 93.7713
lradius 75.2871
lwrist 12.723
lhand -10.1017 -10.1544
lfingers 7.12502
lthumb 15.8857 19.214
rfemur -64.1544 2.11775 11.6225
rtibia 58.6573
rfoot -7.18624 21.3186
rtoes 14.0085
lfemur -17.703 45.6964 -10.8898
ltibia 56.428
lfoot -35.5383 21.0186
ltoes -27.1476
526
root 4.91682 15.0055 -0.857361 -161.628 -28.3138 179.163
lowerback 28.584 -6.35113 -2.02117
upperback 4.26827 -9.26649 4.10872
thorax -9.78695 -4.57047 9.17932
lowerneck -13.3855 -19.6451 -20.6745
upperneck 13.8498 -30.2316 25.916
head 14.6315 -13.0633 6.41238
rclavicle 1.20066e-013 -1.86858e-014
rhumerus -3.01209 31.3264 -82.7309
rradius 52.6565
rwrist -12.5842
rhand -9.63262 -29.6502
rfingers 7.12502
rthumb 16.3374 -58.982
lclavicle 1.20066e-013 -1.86858e-014
lhumerus -36.0631 -43.6762 93.2124
lradius 75.3259
lwrist 12.5935
lhand -10.121 -10.3705
lfingers 7.12502
lthumb 15.8672 18.9994
rfemur -64.7113 2.02465 11.3116
rtibia 58.8308
rfoot -7.69333 20.6741
rtoes 11.8144
lfemur -19.0846 45.7546 -11.4633
ltibia 57.2324
lfoot -35.4676 20.9271
ltoes -27.7738
527
root 4.94427 14.9747 -0.826937 -161.38 -27.5176 179.252
lowerback 29.4218 -5.63167 -2.54476
upperback 4.29995 -8.55937 4.73365
thorax -9.58709 -4.31963 9.4276
lowerneck -13.6202 -19.4698 -20.6912
upperneck 14.0695 -30.0522 26.0467
head 14.7635 -12.9358 6.5238
rclavicle 7.51406e-014 -3.26007e-014
rhumerus -2.38325 30.9321 -81.6333
rradius 53.0958
rwrist -12.9225
rhand -8.88619 -28.7817
rfingers 7.12502
rthumb 17.056 -58.0529
lclavicle 7.51406e-014 -3.26007e-014
lhumerus -35.0253 -43.469 92.6411
lradius 75.455
lwrist 12.458
lhand -10.1208 -10.5245
lfingers 7.12502
lthumb 15.8673 18.8453
rfemur -65.6198 2.94177 11.0021
rtibia 59.1065
rfoot -7.87336 20.2902
rtoes 10.1208
lfemur -19.7047 47.0843 -11.6824
ltibia 58.0096
lfoot -35.5567 20.4258
ltoes -27.5712
528
root 4.96678 14.9272 -0.797656 -161.278 -27.0931 179.279
lowerback 30.4175 -5.12053 -2.72815
upperback 4.61138 -8.04035 5.03841
thorax -9.69644 -4.11278 9.76775
lowerneck -13.891 -19.3232 -20.7496
upperneck 14.3493 -29.9293 26.1803
head 14.9527 -12.8285 6.62379
rclavicle -4.49253e-014 -4.73108e-014
rhumerus -1.81032 30.386 -80.8609
rradius 53.3507
rwrist -13.025
rhand -9.08957 -28.9475
rfingers 7.12502
rthumb 16.8602 -58.2355
lclavicle -4.49253e-014 -4.73108e-014
lhumerus -34.0725 -43.1562 91.9925
lradius 75.6106
lwrist 12.0034
lhand -10.3369 -10.908
lfingers 7.12502
lthumb 15.6592 18.4783
rfemur -66.288 3.3067 10.868
rtibia 59.475
rfoot -7.77635 20.2427
rtoes 9.99852
lfemur -20.06 48.0792 -11.7305
ltibia 58.7475
lfoot -35.7842 19.7183
ltoes -26.9322
529
root 4.9355 14.9016 -0.736016 -160.904 -28.3923 178.788
lowerback 31.4285 -5.78292 -1.141
upperback 4.71565 -8.42743 5.06051
thorax -10.1233 -4.33786 9.17472
lowerneck -14.2096 -19.2585 -20.574
upperneck 14.7927 -29.9993 26.1619
head 15.1922 -12.788 6.57269
rclavicle 1.05356e-013 -4.69132e-014
rhumerus -1.30463 29.5951 -80.3612
rradius 53.4198
rwrist -12.9416
rhand -9.71531 -29.4846
rfingers 7.12502
rthumb 16.2578 -58.823
lclavicle 1.05356e-013 -4.69132e-014
lhumerus -33.268 -43.0155 91.2486
lradius 75.7575
lwrist 11.7056
lhand -10.5612 -11.3375
lfingers 7.12502
lthumb 15.4431 18.0656
rfemur -66.4914 1.68148 10.6666
rtibia 59.8076
rfoot -7.73611 20.5145
rtoes 10.3315
lfemur -21.3134 47.1045 -12.6694
ltibia 59.4618
lfoot -36.2201 19.3626
ltoes -26.4038
530
root 4.94789 14.8742 -0.710045 -160.597 -28.1133 178.57
lowerback 32.2412 -5.52293 -1.13522
upperback 4.92281 -8.14882 5.16889
thorax -10.2544 -4.23406 9.26062
lowerneck -14.3622 -19.1362 -20.4321
upperneck 15.162 -29.9653 26.1205
head 15.3394 -12.7273 6.56364
rclavicle 1.26825e-013 -3.22031e-014
rhumerus -0.724565 29.2865 -79.7104
rradius 53.3873
rwrist -12.9709
rhand -10.6026 -30.417
rfingers 7.12502
rthumb 15.4033 -59.8231
lclavicle 1.26825e-013 -3.22031e-014
lhumerus -32.5224 -42.7252 90.5737
lradius 75.8687
lwrist 11.7577
lhand -10.7122 -11.2699
lfingers 7.12502
lthumb 15.2977 18.1444
rfemur -67.1227 1.85225 10.327
rtibia 60.1493
rfoot -7.63046 20.6397
rtoes 10.9066
lfemur -21.8882 47.8985 -13.0661
ltibia 60.1135
lfoot -36.2035 18.8968
ltoes -26.6421
531
root 4.94221 14.8508 -0.673062 -160.125 -28.0921 178.342
lowerback 32.8269 -5.45116 -0.746377
upperback 5.05671 -7.95967 5.32389
thorax -10.3919 -4.17508 9.20505
lowerneck -14.3966 -18.9843 -20.3773
upperneck 15.4768 -29.8653 26.0797
head 15.4374 -12.6559 6.59689
rclavicle -6.36111e-014 6.44062e-014
rhumerus -0.0531299 29.1685 -78.8016
rradius 53.3029
rwrist -12.8933
rhand -11.1793 -31.6299
rfingers 7.12502
rthumb 14.8478 -61.0779
lclavicle -6.36111e-014 6.44062e-014
lhumerus -31.6739 -42.434 89.9756
lradius 75.982
lwrist 11.9679
lhand -10.6026 -10.7538
lfingers 7.12502
lthumb 15.4033 18.6524
rfemur -67.8357 1.57607 10.0637
rtibia 60.4604
rfoot -7.5155 20.858
rtoes 11.4439
lfemur -22.9283 48.296 -13.8491
ltibia 60.7741
lfoot -36.3057 18.633
ltoes -26.6043
